HIERARCHY
ROOT mixamorig:Hips
{
	OFFSET -0.000008 104.274872 1.554316
	CHANNELS 6 Xposition Yposition Zposition Xrotation Yrotation Zrotation
	JOINT mixamorig:Spine
	{
		OFFSET -0.000005 10.181587 0.131521
		CHANNELS 6 Xposition Yposition Zposition Xrotation Yrotation Zrotation
		JOINT mixamorig:Spine1
		{
			OFFSET -0.000000 9.893967 -1.470711
			CHANNELS 3 Xrotation Yrotation Zrotation
			JOINT mixamorig:Spine2
			{
				OFFSET -0.000000 9.220772 -1.370643
				CHANNELS 3 Xrotation Yrotation Zrotation
				JOINT mixamorig:Neck
				{
					OFFSET 0.000001 16.740387 -2.049035
					CHANNELS 6 Xposition Yposition Zposition Xrotation Yrotation Zrotation
					JOINT mixamorig:Head
					{
						OFFSET 0.000000 9.617889 1.685008
						CHANNELS 6 Xposition Yposition Zposition Xrotation Yrotation Zrotation
						JOINT mixamorig:HeadTop_End
						{
							OFFSET 0.000002 22.037369 7.501095
							CHANNELS 6 Xposition Yposition Zposition Xrotation Yrotation Zrotation
							End Site
							{
								OFFSET 0.000002 23.106552 -2.828258
							}
						}
					}
				}
				JOINT mixamorig:RightShoulder
				{
					OFFSET -4.569969 11.014908 -2.160884
					CHANNELS 6 Xposition Yposition Zposition Xrotation Yrotation Zrotation
					JOINT mixamorig:RightArm
					{
						OFFSET -10.592846 -0.524811 -2.232097
						CHANNELS 3 Xrotation Yrotation Zrotation
						JOINT mixamorig:RightForeArm
						{
							OFFSET -27.841518 0.000000 -0.000004
							CHANNELS 3 Xrotation Yrotation Zrotation
							JOINT mixamorig:RightHand
							{
								OFFSET -28.328838 0.000000 0.000019
								CHANNELS 3 Xrotation Yrotation Zrotation
								JOINT mixamorig:RightHandThumb1
								{
									OFFSET -2.464806 -1.573990 2.681852
									CHANNELS 6 Xposition Yposition Zposition Xrotation Yrotation Zrotation
									JOINT mixamorig:RightHandThumb2
									{
										OFFSET -3.215187 -1.872772 1.924281
										CHANNELS 3 Xrotation Yrotation Zrotation
										JOINT mixamorig:RightHandThumb3
										{
											OFFSET -2.654839 -1.527985 1.512611
											CHANNELS 3 Xrotation Yrotation Zrotation
											JOINT mixamorig:RightHandThumb4
											{
												OFFSET -2.018822 -1.152008 1.108052
												CHANNELS 3 Xrotation Yrotation Zrotation
												End Site
												{
													OFFSET -1.888100 -1.145340 1.324313
												}
											}
										}
									}
								}
								JOINT mixamorig:RightHandIndex1
								{
									OFFSET -9.108284 -0.517868 2.259834
									CHANNELS 6 Xposition Yposition Zposition Xrotation Yrotation Zrotation
									JOINT mixamorig:RightHandIndex2
									{
										OFFSET -3.699997 0.000015 0.001215
										CHANNELS 3 Xrotation Yrotation Zrotation
										JOINT mixamorig:RightHandIndex3
										{
											OFFSET -2.850006 0.000000 -0.000521
											CHANNELS 3 Xrotation Yrotation Zrotation
											JOINT mixamorig:RightHandIndex4
											{
												OFFSET -2.772186 0.000000 -0.000020
												CHANNELS 3 Xrotation Yrotation Zrotation
												End Site
												{
													OFFSET -2.772186 0.000000 -0.000502
												}
											}
										}
									}
								}
								JOINT mixamorig:RightHandMiddle1
								{
									OFFSET -9.532501 -0.000046 -0.000025
									CHANNELS 6 Xposition Yposition Zposition Xrotation Yrotation Zrotation
									JOINT mixamorig:RightHandMiddle2
									{
										OFFSET -3.699997 0.000015 0.003713
										CHANNELS 3 Xrotation Yrotation Zrotation
										JOINT mixamorig:RightHandMiddle3
										{
											OFFSET -2.949997 0.000000 -0.002054
											CHANNELS 3 Xrotation Yrotation Zrotation
											JOINT mixamorig:RightHandMiddle4
											{
												OFFSET -2.946632 0.000015 -0.000155
												CHANNELS 3 Xrotation Yrotation Zrotation
												End Site
												{
													OFFSET -2.946625 0.000000 -0.001135
												}
											}
										}
									}
								}
								JOINT mixamorig:RightHandRing1
								{
									OFFSET -9.103592 -0.043076 -1.865134
									CHANNELS 6 Xposition Yposition Zposition Xrotation Yrotation Zrotation
									JOINT mixamorig:RightHandRing2
									{
										OFFSET -3.379272 0.000000 -0.001054
										CHANNELS 3 Xrotation Yrotation Zrotation
										JOINT mixamorig:RightHandRing3
										{
											OFFSET -2.889687 0.000000 0.000379
											CHANNELS 3 Xrotation Yrotation Zrotation
											JOINT mixamorig:RightHandRing4
											{
												OFFSET -2.638817 0.000000 0.000942
												CHANNELS 3 Xrotation Yrotation Zrotation
												End Site
												{
													OFFSET -2.638802 0.000000 0.005160
												}
											}
										}
									}
								}
								JOINT mixamorig:RightHandPinky1
								{
									OFFSET -8.076675 -0.486710 -3.806279
									CHANNELS 6 Xposition Yposition Zposition Xrotation Yrotation Zrotation
									JOINT mixamorig:RightHandPinky2
									{
										OFFSET -3.599998 -0.000031 -0.003747
										CHANNELS 3 Xrotation Yrotation Zrotation
										JOINT mixamorig:RightHandPinky3
										{
											OFFSET -2.099991 -0.000015 -0.005740
											CHANNELS 3 Xrotation Yrotation Zrotation
											JOINT mixamorig:RightHandPinky4
											{
												OFFSET -2.115776 -0.000015 -0.003680
												CHANNELS 3 Xrotation Yrotation Zrotation
												End Site
												{
													OFFSET -2.115784 -0.000015 -0.003507
												}
											}
										}
									}
								}
							}
						}
					}
				}
				JOINT mixamorig:LeftShoulder
				{
					OFFSET 4.570447 11.014709 -2.160855
					CHANNELS 6 Xposition Yposition Zposition Xrotation Yrotation Zrotation
					JOINT mixamorig:LeftArm
					{
						OFFSET 10.592369 -0.524597 -2.232120
						CHANNELS 3 Xrotation Yrotation Zrotation
						JOINT mixamorig:LeftForeArm
						{
							OFFSET 27.841522 -0.000031 0.000023
							CHANNELS 3 Xrotation Yrotation Zrotation
							JOINT mixamorig:LeftHand
							{
								OFFSET 28.328835 -0.000031 0.000018
								CHANNELS 3 Xrotation Yrotation Zrotation
								JOINT mixamorig:LeftHandThumb1
								{
									OFFSET 2.466141 -1.576187 2.681734
									CHANNELS 6 Xposition Yposition Zposition Xrotation Yrotation Zrotation
									JOINT mixamorig:LeftHandThumb2
									{
										OFFSET 3.217804 -1.872055 1.916487
										CHANNELS 3 Xrotation Yrotation Zrotation
										JOINT mixamorig:LeftHandThumb3
										{
											OFFSET 2.656013 -1.528809 1.514505
											CHANNELS 3 Xrotation Yrotation Zrotation
											JOINT mixamorig:LeftHandThumb4
											{
												OFFSET 2.020889 -1.154068 1.115134
												CHANNELS 3 Xrotation Yrotation Zrotation
												End Site
												{
													OFFSET 1.908852 -1.150833 1.300489
												}
											}
										}
									}
								}
								JOINT mixamorig:LeftHandIndex1
								{
									OFFSET 9.109306 -0.518036 2.259871
									CHANNELS 6 Xposition Yposition Zposition Xrotation Yrotation Zrotation
									JOINT mixamorig:LeftHandIndex2
									{
										OFFSET 3.699997 -0.000015 -0.000323
										CHANNELS 3 Xrotation Yrotation Zrotation
										JOINT mixamorig:LeftHandIndex3
										{
											OFFSET 2.850006 -0.000015 0.000350
											CHANNELS 3 Xrotation Yrotation Zrotation
											JOINT mixamorig:LeftHandIndex4
											{
												OFFSET 2.774864 0.000000 -0.000027
												CHANNELS 3 Xrotation Yrotation Zrotation
												End Site
												{
													OFFSET 2.774872 -0.000015 -0.000099
												}
											}
										}
									}
								}
								JOINT mixamorig:LeftHandMiddle1
								{
									OFFSET 9.533401 0.000031 0.000044
									CHANNELS 6 Xposition Yposition Zposition Xrotation Yrotation Zrotation
									JOINT mixamorig:LeftHandMiddle2
									{
										OFFSET 3.699997 -0.000015 -0.000231
										CHANNELS 3 Xrotation Yrotation Zrotation
										JOINT mixamorig:LeftHandMiddle3
										{
											OFFSET 2.950005 0.000000 -0.000060
											CHANNELS 3 Xrotation Yrotation Zrotation
											JOINT mixamorig:LeftHandMiddle4
											{
												OFFSET 2.952858 0.000000 0.000063
												CHANNELS 3 Xrotation Yrotation Zrotation
												End Site
												{
													OFFSET 2.952866 0.000000 0.000228
												}
											}
										}
									}
								}
								JOINT mixamorig:LeftHandRing1
								{
									OFFSET 9.104530 -0.043030 -1.865074
									CHANNELS 6 Xposition Yposition Zposition Xrotation Yrotation Zrotation
									JOINT mixamorig:LeftHandRing2
									{
										OFFSET 3.150002 -0.000015 0.000042
										CHANNELS 3 Xrotation Yrotation Zrotation
										JOINT mixamorig:LeftHandRing3
										{
											OFFSET 2.949997 0.000000 0.000037
											CHANNELS 3 Xrotation Yrotation Zrotation
											JOINT mixamorig:LeftHandRing4
											{
												OFFSET 2.644318 -0.000015 0.000059
												CHANNELS 3 Xrotation Yrotation Zrotation
												End Site
												{
													OFFSET 2.644318 0.000000 0.000121
												}
											}
										}
									}
								}
								JOINT mixamorig:LeftHandPinky1
								{
									OFFSET 8.077782 -0.486877 -3.806256
									CHANNELS 6 Xposition Yposition Zposition Xrotation Yrotation Zrotation
									JOINT mixamorig:LeftHandPinky2
									{
										OFFSET 3.599968 0.000031 0.014726
										CHANNELS 3 Xrotation Yrotation Zrotation
										JOINT mixamorig:LeftHandPinky3
										{
											OFFSET 2.099991 0.000015 0.007705
											CHANNELS 3 Xrotation Yrotation Zrotation
											JOINT mixamorig:LeftHandPinky4
											{
												OFFSET 2.125511 0.000015 0.007514
												CHANNELS 3 Xrotation Yrotation Zrotation
												End Site
												{
													OFFSET 2.125526 0.000015 0.006258
												}
											}
										}
									}
								}
							}
						}
					}
				}
			}
		}
	}
	JOINT mixamorig:RightUpLeg
	{
		OFFSET -8.207787 -6.751671 -1.599560
		CHANNELS 6 Xposition Yposition Zposition Xrotation Yrotation Zrotation
		JOINT mixamorig:RightLeg
		{
			OFFSET -0.000001 -44.370113 0.345939
			CHANNELS 3 Xrotation Yrotation Zrotation
			JOINT mixamorig:RightFoot
			{
				OFFSET 0.000001 -44.423676 -3.043536
				CHANNELS 3 Xrotation Yrotation Zrotation
				JOINT mixamorig:RightToeBase
				{
					OFFSET -0.000003 -8.728670 10.710561
					CHANNELS 3 Xrotation Yrotation Zrotation
					JOINT mixamorig:RightToe_End
					{
						OFFSET -0.000003 -0.000677 9.278120
						CHANNELS 3 Xrotation Yrotation Zrotation
						End Site
						{
							OFFSET -0.000003 -0.000677 9.278120
						}
					}
				}
			}
		}
	}
	JOINT mixamorig:LeftUpLeg
	{
		OFFSET 8.207791 -6.751701 -1.599555
		CHANNELS 6 Xposition Yposition Zposition Xrotation Yrotation Zrotation
		JOINT mixamorig:LeftLeg
		{
			OFFSET -0.000002 -44.370033 0.346958
			CHANNELS 3 Xrotation Yrotation Zrotation
			JOINT mixamorig:LeftFoot
			{
				OFFSET 0.000000 -44.423653 -3.044392
				CHANNELS 3 Xrotation Yrotation Zrotation
				JOINT mixamorig:LeftToeBase
				{
					OFFSET -0.000003 -8.728668 10.710560
					CHANNELS 3 Xrotation Yrotation Zrotation
					JOINT mixamorig:LeftToe_End
					{
						OFFSET -0.000003 -0.000677 9.278137
						CHANNELS 3 Xrotation Yrotation Zrotation
						End Site
						{
							OFFSET -0.000003 -0.000677 9.278137
						}
					}
				}
			}
		}
	}
}
MOTION
Frames: 4
Frame Time: 0.033333
-0.251017 113.256653 -3.150423 -95.365792 -7.236970 0.417095 -0.000004 10.181596 0.131509 0.807505 0.608935 -2.157671 2.166870 1.742096 -0.647245 2.175956 1.730778 -0.649603 0.000001 16.740404 -2.049035 -3.748902 13.158868 -4.240269 0.000001 9.617889 1.684996 2.827212 47.143253 -4.195811 -0.000006 22.037354 7.501100 0.000001 -0.000003 0.000000 -4.569971 11.014901 -2.160888 0.734236 3.259870 7.853810 37.190274 30.734868 25.860382 39.551829 106.228136 -51.199706 -39.723141 6.476611 10.281727 -2.464816 -1.573969 2.681839 -6.439999 -0.726888 -8.966823 9.206535 -23.377386 -2.276196 3.788985 -35.314786 -19.447792 0.000001 0.000002 0.000007 -9.108284 -0.517863 2.259837 0.622637 -3.350866 34.531176 0.214829 -1.380893 17.581633 0.218070 -1.420357 17.588757 0.000000 0.000000 -0.000002 -9.532520 -0.000046 -0.000027 -0.486283 -3.467534 32.803035 0.206076 -1.314542 17.586149 0.217275 -1.447285 17.588898 -0.000002 0.000001 0.000001 -9.103609 -0.043071 -1.865130 -0.600368 -3.000348 28.465631 0.220274 -1.434742 17.581908 0.224370 -1.422211 17.588835 0.000000 -0.000001 -0.000000 -8.076691 -0.486707 -3.806277 0.309637 -3.822264 20.011684 0.170868 -1.320564 17.587735 0.188071 -1.471805 17.588465 -0.000001 0.000000 -0.000004 4.570446 11.014716 -2.160846 0.563179 0.114234 -1.187209 20.868388 -33.563956 -53.501589 -44.733685 -75.246828 -35.193940 -0.279771 6.076359 -14.921359 2.466118 -1.576220 2.681730 -4.494827 -2.875464 5.692502 9.060337 21.808895 1.706219 -4.621793 6.745492 15.053025 0.000002 -0.000003 0.000003 9.109326 -0.518055 2.259872 0.937306 5.382755 -29.716329 0.384847 2.095167 -20.795136 0.380251 2.071031 -20.742552 -0.000001 0.000007 -0.000008 9.533411 0.000019 0.000038 0.654687 4.922541 -25.952490 0.378674 2.077521 -20.705413 0.379522 2.077358 -20.705425 0.000004 -0.000009 0.000003 9.104527 -0.043043 -1.865077 0.574989 4.752150 -24.069117 0.379349 2.075005 -20.705416 0.379358 2.075005 -20.705394 0.000004 0.000009 -0.000000 8.077792 -0.486877 -3.806262 0.391881 4.306497 -17.078203 0.453373 2.037369 -20.706265 0.450677 2.054262 -20.706458 -0.000003 0.000001 -0.000001 -8.207785 -6.751673 -1.599571 -0.319830 -15.642982 -12.225385 7.930166 -1.898759 -5.018759 35.912971 -30.214814 29.622288 -5.045812 0.000003 -0.000007 0.000000 -0.000000 0.000001 8.207789 -6.751702 -1.599564 5.325423 15.795465 7.911818 6.290957 -0.491297 5.224598 34.393472 30.474600 -29.359363 -7.086139 0.000012 -0.000003 -0.000000 -0.000000 -0.000001 
-0.251838 113.242012 -3.152262 -95.494207 -7.233876 0.422023 -0.000005 10.181584 0.131524 0.968702 0.609309 -2.181901 2.189080 1.742098 -0.647244 2.198487 1.730776 -0.649605 0.000002 16.740398 -2.049038 -3.557091 14.438258 -3.990708 0.000003 9.617884 1.684999 2.880227 45.816192 -4.621940 -0.000009 22.037354 7.501101 0.000003 0.000002 -0.000000 -4.569970 11.014914 -2.160878 0.736842 3.244174 7.856392 37.175637 30.748730 25.823487 39.551747 106.228061 -51.199634 -39.721211 6.490857 10.264480 -2.464810 -1.573973 2.681846 -6.439999 -0.726888 -8.966817 9.206540 -23.377385 -2.276200 3.788984 -35.314783 -19.447796 0.000006 -0.000011 0.000001 -9.108284 -0.517871 2.259839 0.622638 -3.350867 34.531172 0.214828 -1.380892 17.581631 0.218072 -1.420356 17.588772 0.000001 -0.000001 -0.000004 -9.532520 -0.000050 -0.000026 -0.486284 -3.467538 32.803032 0.206075 -1.314540 17.586146 0.217275 -1.447283 17.588893 -0.000000 0.000001 0.000007 -9.103609 -0.043078 -1.865129 -0.600367 -3.000349 28.465631 0.220275 -1.434740 17.581909 0.224372 -1.422210 17.588838 -0.000000 -0.000000 0.000001 -8.076694 -0.486732 -3.806280 0.309638 -3.822267 20.011684 0.170867 -1.320563 17.587734 0.188069 -1.471803 17.588465 0.000002 0.000000 -0.000002 4.570447 11.014720 -2.160846 0.564172 0.131690 -1.193608 20.868393 -33.574983 -53.447706 -44.907090 -75.289715 -35.361686 -0.248563 5.990467 -14.856305 2.466150 -1.576188 2.681735 -4.494828 -2.875464 5.692496 9.060338 21.808898 1.706228 -4.621801 6.745484 15.053020 0.000005 0.000013 0.000006 9.109319 -0.518074 2.259868 0.937303 5.382748 -29.716323 0.384843 2.095164 -20.795136 0.380253 2.071044 -20.742543 -0.000003 -0.000003 -0.000003 9.533422 0.000015 0.000040 0.654685 4.922537 -25.952489 0.378676 2.077525 -20.705418 0.379524 2.077362 -20.705423 0.000001 -0.000002 -0.000001 9.104537 -0.043039 -1.865077 0.574987 4.752151 -24.069112 0.379347 2.075003 -20.705420 0.379359 2.075005 -20.705389 -0.000003 0.000004 0.000001 8.077808 -0.486875 -3.806260 0.391881 4.306493 -17.078202 0.453377 2.037370 -20.706263 0.450677 2.054268 -20.706468 0.000002 0.000001 0.000003 -8.207784 -6.751666 -1.599552 -0.218417 -15.667788 -12.255005 7.963252 -1.862627 -5.018839 35.898197 -30.214045 29.619880 -5.045808 -0.000015 0.000023 0.000003 -0.000002 0.000001 8.207792 -6.751698 -1.599546 5.460376 15.840196 7.892448 6.269259 -0.527713 5.224515 34.384658 30.476806 -29.360077 -7.086205 -0.000024 0.000007 0.000000 0.000001 0.000001 
-0.252588 113.227661 -3.153960 -95.624732 -7.228930 0.427334 -0.000004 10.181590 0.131520 1.139653 0.606543 -2.208937 2.221605 1.742097 -0.646870 2.231305 1.730778 -0.649173 0.000001 16.740398 -2.049038 -3.604819 14.422419 -3.924798 0.000001 9.617881 1.685002 2.869301 45.783031 -4.815300 0.000009 22.037354 7.501098 0.000000 -0.000001 -0.000001 -4.569971 11.014930 -2.160883 0.743189 3.201066 7.874780 37.162871 30.771385 25.758283 39.542550 106.231134 -51.190823 -39.723130 6.506877 10.258755 -2.464802 -1.573977 2.681848 -6.439994 -0.726892 -8.966823 9.206531 -23.377376 -2.276187 3.788986 -35.314790 -19.447797 0.000002 -0.000009 0.000002 -9.108253 -0.517882 2.259839 0.622638 -3.350867 34.531176 0.214831 -1.380893 17.581633 0.218070 -1.420357 17.588760 0.000002 -0.000002 -0.000004 -9.532505 -0.000061 -0.000020 -0.486283 -3.467536 32.803032 0.206078 -1.314543 17.586149 0.217276 -1.447285 17.588898 -0.000001 -0.000001 0.000003 -9.103586 -0.043067 -1.865127 -0.600368 -3.000351 28.465631 0.220277 -1.434742 17.581913 0.224370 -1.422212 17.588837 -0.000001 -0.000000 -0.000004 -8.076675 -0.486715 -3.806273 0.309637 -3.822267 20.011682 0.170867 -1.320564 17.587739 0.188069 -1.471806 17.588465 0.000000 -0.000001 0.000001 4.570446 11.014709 -2.160845 0.564328 0.179703 -1.214416 20.859427 -33.615824 -53.365094 -45.071288 -75.330013 -35.520488 -0.218475 5.901663 -14.792812 2.466148 -1.576216 2.681734 -4.494826 -2.875460 5.692502 9.060330 21.808888 1.706219 -4.621788 6.745504 15.053027 -0.000002 -0.000003 0.000003 9.109311 -0.518070 2.259867 0.937308 5.382751 -29.716326 0.384847 2.095170 -20.795136 0.380250 2.071036 -20.742547 -0.000002 -0.000002 -0.000010 9.533430 0.000003 0.000040 0.654687 4.922536 -25.952482 0.378673 2.077528 -20.705418 0.379520 2.077361 -20.705416 0.000000 -0.000008 0.000000 9.104541 -0.043058 -1.865077 0.574987 4.752153 -24.069110 0.379347 2.075004 -20.705421 0.379359 2.075007 -20.705392 0.000004 0.000001 -0.000002 8.077812 -0.486875 -3.806257 0.391882 4.306492 -17.078205 0.453373 2.037370 -20.706260 0.450678 2.054260 -20.706465 0.000004 -0.000002 -0.000004 -8.207785 -6.751665 -1.599551 -0.116793 -15.698763 -12.286095 7.997319 -1.829280 -5.018908 35.877706 -30.213246 29.617623 -5.045810 0.000023 -0.000014 -0.000001 -0.000000 -0.000001 8.207792 -6.751698 -1.599553 5.589317 15.919031 7.884350 6.256756 -0.622508 5.224495 34.376093 30.479364 -29.354097 -7.086180 0.000018 0.000024 -0.000000 -0.000002 0.000001 
-0.252251 113.215103 -3.155578 -95.748146 -7.229986 0.422976 -0.000006 10.181594 0.131497 1.319018 0.598862 -2.237681 2.250107 1.743139 -0.631814 2.259628 1.732237 -0.631203 0.000002 16.740393 -2.049039 -3.688691 14.419860 -3.894147 0.000003 9.617887 1.685007 2.866906 45.761629 -4.979067 -0.000003 22.037354 7.501099 0.000000 0.000000 0.000000 -4.569969 11.014906 -2.160882 0.742079 3.129090 7.903698 37.178362 30.781077 25.650707 39.476243 106.252704 -51.127135 -39.712383 6.493732 10.233045 -2.464808 -1.573975 2.681842 -6.439999 -0.726887 -8.966823 9.206547 -23.377390 -2.276193 3.788974 -35.314779 -19.447794 0.000003 -0.000013 -0.000001 -9.108284 -0.517867 2.259836 0.622638 -3.350865 34.531176 0.214831 -1.380894 17.581634 0.218071 -1.420356 17.588768 0.000000 -0.000000 -0.000006 -9.532513 -0.000050 -0.000022 -0.486284 -3.467537 32.803035 0.206075 -1.314543 17.586147 0.217274 -1.447284 17.588895 -0.000001 -0.000000 0.000002 -9.103586 -0.043075 -1.865132 -0.600368 -3.000351 28.465633 0.220276 -1.434742 17.581914 0.224371 -1.422212 17.588835 0.000001 -0.000000 -0.000001 -8.076679 -0.486732 -3.806276 0.309637 -3.822267 20.011689 0.170869 -1.320563 17.587735 0.188073 -1.471806 17.588468 -0.000002 0.000001 -0.000008 4.570446 11.014706 -2.160849 0.560222 0.257052 -1.248000 20.852754 -33.698084 -53.275680 -45.226053 -75.367736 -35.670188 -0.178778 5.807022 -14.719688 2.466133 -1.576210 2.681734 -4.494824 -2.875471 5.692499 9.060335 21.808895 1.706209 -4.621796 6.745491 15.053025 -0.000002 -0.000002 -0.000006 9.109320 -0.518059 2.259868 0.937305 5.382744 -29.716326 0.384843 2.095175 -20.795138 0.380251 2.071034 -20.742557 -0.000000 -0.000002 -0.000002 9.533423 0.000023 0.000039 0.654689 4.922531 -25.952489 0.378671 2.077532 -20.705420 0.379525 2.077353 -20.705420 0.000000 -0.000001 -0.000002 9.104543 -0.043062 -1.865074 0.574987 4.752142 -24.069115 0.379346 2.075005 -20.705418 0.379358 2.075001 -20.705397 0.000001 0.000005 -0.000003 8.077790 -0.486888 -3.806265 0.391881 4.306488 -17.078207 0.453374 2.037375 -20.706258 0.450677 2.054254 -20.706465 0.000002 -0.000000 0.000001 -8.207785 -6.751665 -1.599576 -0.016276 -15.736274 -12.306031 8.019395 -1.786943 -5.018870 35.859429 -30.212867 29.614980 -5.045826 0.000021 -0.000022 0.000001 -0.000001 0.000001 8.207790 -6.751696 -1.599570 5.699377 16.026339 7.879322 6.263997 -0.774332 5.224544 34.369799 30.481857 -29.337285 -7.093168 0.000040 0.000013 0.000000 -0.000003 -0.000001 
